<svg width="16" height="18" viewBox="0 0 16 18" fill="none" xmlns="http://www.w3.org/2000/svg">
<path d="M5.9221 8.17214L14.2816 0.207143C14.4211 0.0741756 14.6064 -3.89772e-07 14.7991 -3.98195e-07C14.9918 -4.06619e-07 15.1771 0.0741756 15.3166 0.207143L15.3256 0.216143C15.3935 0.280603 15.4475 0.358192 15.4844 0.444192C15.5213 0.530191 15.5404 0.622803 15.5404 0.716393C15.5404 0.809982 15.5213 0.902594 15.4844 0.988593C15.4475 1.07459 15.3935 1.15218 15.3256 1.21664L7.4536 8.71664L15.3256 16.2136C15.3935 16.2781 15.4475 16.3557 15.4844 16.4417C15.5213 16.5277 15.5404 16.6203 15.5404 16.7139C15.5404 16.8075 15.5213 16.9001 15.4844 16.9861C15.4475 17.0721 15.3935 17.1497 15.3256 17.2141L15.3166 17.2231C15.1771 17.3561 14.9918 17.4303 14.7991 17.4303C14.6064 17.4303 14.4211 17.3561 14.2816 17.2231L5.9221 9.25814C5.84859 9.1881 5.79006 9.10385 5.75007 9.01051C5.71007 8.91717 5.68945 8.81669 5.68945 8.71514C5.68945 8.6136 5.71007 8.51311 5.75007 8.41977C5.79006 8.32643 5.84859 8.24219 5.9221 8.17214Z" fill="#C2C2C2"/>
<path d="M0.232651 8.17214L8.59215 0.207143C8.73163 0.0741756 8.91694 -3.89772e-07 9.10965 -3.98195e-07C9.30236 -4.06619e-07 9.48767 0.0741756 9.62715 0.207143L9.63615 0.216143C9.704 0.280603 9.75803 0.358192 9.79495 0.444192C9.83187 0.530191 9.85091 0.622803 9.85091 0.716393C9.85091 0.809982 9.83187 0.902594 9.79495 0.988593C9.75803 1.07459 9.704 1.15218 9.63615 1.21664L1.76415 8.71664L9.63615 16.2136C9.704 16.2781 9.75803 16.3557 9.79495 16.4417C9.83187 16.5277 9.85091 16.6203 9.85091 16.7139C9.85091 16.8075 9.83187 16.9001 9.79495 16.9861C9.75803 17.0721 9.704 17.1497 9.63615 17.2141L9.62715 17.2231C9.48767 17.3561 9.30236 17.4303 9.10965 17.4303C8.91695 17.4303 8.73163 17.3561 8.59215 17.2231L0.232651 9.25814C0.159132 9.1881 0.100604 9.10385 0.0606126 9.01051C0.0206215 8.91717 3.8539e-07 8.81669 3.80951e-07 8.71514C3.76512e-07 8.6136 0.0206214 8.51311 0.0606126 8.41977C0.100604 8.32643 0.159132 8.24219 0.232651 8.17214Z" fill="#C2C2C2"/>
</svg>
