<svg width="16" height="18" viewBox="0 0 16 18" fill="none" xmlns="http://www.w3.org/2000/svg">
<path d="M10.0779 8.17214L1.7184 0.207143C1.57891 0.0741756 1.3936 -3.89772e-07 1.2009 -3.98195e-07C1.00819 -4.06619e-07 0.82288 0.0741756 0.683397 0.207143L0.674397 0.216143C0.606544 0.280603 0.552514 0.358192 0.515594 0.444192C0.478673 0.530191 0.459634 0.622803 0.459634 0.716393C0.459634 0.809982 0.478673 0.902594 0.515593 0.988593C0.552514 1.07459 0.606543 1.15218 0.674396 1.21664L8.5464 8.71664L0.674396 16.2136C0.606543 16.2781 0.552513 16.3557 0.515593 16.4417C0.478672 16.5277 0.459633 16.6203 0.459633 16.7139C0.459633 16.8075 0.478672 16.9001 0.515593 16.9861C0.552513 17.0721 0.606543 17.1497 0.674396 17.2141L0.683397 17.2231C0.822879 17.3561 1.00819 17.4303 1.2009 17.4303C1.3936 17.4303 1.57891 17.3561 1.7184 17.2231L10.0779 9.25814C10.1514 9.1881 10.2099 9.10385 10.2499 9.01051C10.2899 8.91717 10.3105 8.81669 10.3105 8.71514C10.3105 8.6136 10.2899 8.51311 10.2499 8.41977C10.2099 8.32643 10.1514 8.24219 10.0779 8.17214Z" fill="#C2C2C2"/>
<path d="M15.7673 8.17214L7.40785 0.207143C7.26837 0.0741756 7.08306 -3.89772e-07 6.89035 -3.98195e-07C6.69764 -4.06619e-07 6.51233 0.0741756 6.37285 0.207143L6.36385 0.216143C6.296 0.280603 6.24197 0.358192 6.20505 0.444192C6.16813 0.530191 6.14909 0.622803 6.14909 0.716393C6.14909 0.809982 6.16813 0.902594 6.20505 0.988593C6.24197 1.07459 6.296 1.15218 6.36385 1.21664L14.2358 8.71664L6.36385 16.2136C6.296 16.2781 6.24197 16.3557 6.20505 16.4417C6.16813 16.5277 6.14909 16.6203 6.14909 16.7139C6.14909 16.8075 6.16813 16.9001 6.20505 16.9861C6.24197 17.0721 6.296 17.1497 6.36385 17.2141L6.37285 17.2231C6.51233 17.3561 6.69764 17.4303 6.89035 17.4303C7.08305 17.4303 7.26837 17.3561 7.40785 17.2231L15.7673 9.25814C15.8409 9.1881 15.8994 9.10385 15.9394 9.01051C15.9794 8.91717 16 8.81669 16 8.71514C16 8.6136 15.9794 8.51311 15.9394 8.41977C15.8994 8.32643 15.8409 8.24219 15.7673 8.17214Z" fill="#C2C2C2"/>
</svg>
