<svg width="25" height="25" viewBox="0 0 25 25" fill="none" xmlns="http://www.w3.org/2000/svg">
<path d="M8.36009 13.0128L16.7196 20.9778C16.8591 21.1108 17.0444 21.1849 17.2371 21.1849C17.4298 21.1849 17.6151 21.1108 17.7546 20.9778L17.7636 20.9688C17.8314 20.9043 17.8855 20.8267 17.9224 20.7407C17.9593 20.6547 17.9784 20.5621 17.9784 20.4685C17.9784 20.375 17.9593 20.2823 17.9224 20.1963C17.8855 20.1103 17.8314 20.0328 17.7636 19.9683L9.89159 12.4683L17.7636 4.97129C17.8314 4.90684 17.8855 4.82925 17.9224 4.74325C17.9593 4.65725 17.9784 4.56463 17.9784 4.47104C17.9784 4.37746 17.9593 4.28484 17.9224 4.19885C17.8855 4.11284 17.8314 4.03526 17.7636 3.9708L17.7546 3.96179C17.6151 3.82883 17.4298 3.75465 17.2371 3.75465C17.0444 3.75465 16.8591 3.82883 16.7196 3.96179L8.36009 11.9268C8.28657 11.9968 8.22805 12.0811 8.18805 12.1744C8.14806 12.2678 8.12744 12.3682 8.12744 12.4698C8.12744 12.5713 8.14806 12.6718 8.18805 12.7652C8.22805 12.8585 8.28657 12.9427 8.36009 13.0128Z" fill="#C2C2C2"/>
</svg>
