<svg width="24" height="25" viewBox="0 0 24 25" fill="none" xmlns="http://www.w3.org/2000/svg">
<path d="M12.5607 17.2638L20.7861 8.77781C20.9234 8.63622 21 8.4481 21 8.25248C21 8.05686 20.9234 7.86874 20.7861 7.72715L20.7768 7.71801C20.7102 7.64913 20.6301 7.59429 20.5413 7.55681C20.4525 7.51933 20.3568 7.5 20.2602 7.5C20.1635 7.5 20.0679 7.51933 19.9791 7.55681C19.8903 7.59429 19.8102 7.64913 19.7436 7.71801L11.9985 15.7092L4.25641 7.71801C4.18984 7.64913 4.10972 7.59429 4.02091 7.55681C3.9321 7.51933 3.83646 7.5 3.73981 7.5C3.64316 7.5 3.54752 7.51933 3.45871 7.55681C3.3699 7.59429 3.28978 7.64913 3.22321 7.71801L3.21391 7.72715C3.0766 7.86874 3 8.05686 3 8.25248C3 8.4481 3.0766 8.63622 3.21391 8.77781L11.4393 17.2638C11.5116 17.3385 11.5986 17.3979 11.695 17.4385C11.7914 17.4791 11.8951 17.5 12 17.5C12.1049 17.5 12.2086 17.4791 12.305 17.4385C12.4014 17.3979 12.4884 17.3385 12.5607 17.2638Z" fill="#444444"/>
</svg>
