<svg width="60" height="37" viewBox="0 0 60 37" fill="none" xmlns="http://www.w3.org/2000/svg">
<path fill-rule="evenodd" clip-rule="evenodd" d="M36.4947 22.8732C38.1574 20.7297 38.9409 18.0333 38.6861 15.3325C38.4312 12.6318 37.157 10.1295 35.1227 8.33492C33.0884 6.5403 30.4468 5.58807 27.7353 5.67198C25.0238 5.75588 22.4462 6.86961 20.5267 8.78658C18.6056 10.7049 17.4882 13.2835 17.4023 15.9971C17.3164 18.7106 18.2684 21.3548 20.0644 23.3908C21.8603 25.4267 24.365 26.7013 27.068 26.9547C29.7711 27.2081 32.469 26.4213 34.6121 24.7546L34.6694 24.8146L40.3254 30.4719C40.4493 30.5958 40.5963 30.6941 40.7582 30.7611C40.9201 30.8282 41.0935 30.8627 41.2687 30.8627C41.4439 30.8627 41.6174 30.8282 41.7793 30.7611C41.9411 30.6941 42.0882 30.5958 42.2121 30.4719C42.3359 30.348 42.4342 30.201 42.5012 30.0391C42.5683 29.8773 42.6028 29.7038 42.6028 29.5286C42.6028 29.3534 42.5683 29.1799 42.5012 29.0181C42.4342 28.8562 42.3359 28.7091 42.2121 28.5852L36.5547 22.9293C36.5352 22.91 36.5152 22.8914 36.4947 22.8732ZM33.7267 10.6732C34.4795 11.4139 35.0782 12.2962 35.4883 13.2694C35.8984 14.2426 36.1118 15.2874 36.1161 16.3434C36.1204 17.3995 35.9155 18.4459 35.5134 19.4224C35.1112 20.3989 34.5197 21.2861 33.773 22.0328C33.0262 22.7796 32.139 23.3711 31.1625 23.7732C30.186 24.1754 29.1396 24.3802 28.0835 24.3759C27.0275 24.3716 25.9828 24.1583 25.0096 23.7482C24.0364 23.3381 23.154 22.7394 22.4134 21.9866C20.9333 20.4822 20.1076 18.4538 20.1162 16.3434C20.1248 14.233 20.967 12.2114 22.4593 10.7191C23.9516 9.22682 25.9731 8.38464 28.0835 8.37605C30.194 8.36746 32.2223 9.19314 33.7267 10.6732Z" fill="#1BA4ED"/>
</svg>
