<svg width="26" height="26" viewBox="0 0 26 26" fill="none" xmlns="http://www.w3.org/2000/svg">
<path fill-rule="evenodd" clip-rule="evenodd" d="M19.4947 17.9467C21.1574 15.8032 21.9409 13.1068 21.6861 10.406C21.4312 7.70526 20.157 5.20304 18.1227 3.40841C16.0884 1.61378 13.4468 0.661561 10.7353 0.745465C8.02384 0.829369 5.44618 1.9431 3.52672 3.86007C1.6056 5.77837 0.488229 8.35703 0.40232 11.0706C0.31641 13.7841 1.26843 16.4283 3.06436 18.4642C4.8603 20.5002 7.36499 21.7748 10.068 22.0282C12.7711 22.2816 15.469 21.4948 17.6121 19.8281L17.6694 19.8881L23.3254 25.5454C23.4493 25.6693 23.5963 25.7676 23.7582 25.8346C23.9201 25.9016 24.0935 25.9361 24.2687 25.9361C24.4439 25.9361 24.6174 25.9016 24.7793 25.8346C24.9411 25.7676 25.0882 25.6693 25.2121 25.5454C25.3359 25.4215 25.4342 25.2745 25.5012 25.1126C25.5683 24.9507 25.6028 24.7773 25.6028 24.6021C25.6028 24.4269 25.5683 24.2534 25.5012 24.0915C25.4342 23.9297 25.3359 23.7826 25.2121 23.6587L19.5547 18.0027C19.5352 17.9835 19.5152 17.9648 19.4947 17.9467ZM16.7267 5.74674C17.4795 6.48737 18.0782 7.36973 18.4883 8.34292C18.8984 9.3161 19.1118 10.3608 19.1161 11.4169C19.1204 12.4729 18.9155 13.5194 18.5134 14.4959C18.1112 15.4724 17.5197 16.3596 16.773 17.1063C16.0262 17.8531 15.139 18.4446 14.1625 18.8467C13.186 19.2489 12.1396 19.4537 11.0835 19.4494C10.0275 19.4451 8.98275 19.2318 8.00957 18.8217C7.03639 18.4116 6.15403 17.8129 5.41339 17.0601C3.93328 15.5557 3.1076 13.5273 3.11619 11.4169C3.12478 9.30647 3.96696 7.28493 5.45927 5.79262C6.95158 4.3003 8.97312 3.45813 11.0835 3.44954C13.194 3.44094 15.2223 4.26663 16.7267 5.74674Z" fill="white"/>
</svg>
