<svg width="86" height="86" viewBox="0 0 86 86" fill="none" xmlns="http://www.w3.org/2000/svg">
<path fill-rule="evenodd" clip-rule="evenodd" d="M60.51 3.87894C63.1407 0.921706 67.6707 0.657025 70.6279 3.28777L81.337 12.8145C84.2943 15.4453 84.559 19.9752 81.9282 22.9325L74.8503 30.8888C74.829 30.9141 74.8073 30.9392 74.7852 30.964C74.7631 30.9889 74.7407 31.0134 74.7181 31.0375L53.0817 55.359C51.8921 56.6963 50.2451 57.54 48.4648 57.7243L36.8038 58.9309C32.6444 59.3613 29.0015 56.1539 28.9016 51.9735L28.6767 42.5629C28.6333 40.7481 29.2802 38.9845 30.4868 37.6283L60.51 3.87894ZM71.8113 23.5225L76.5737 18.1691L65.8645 8.64233L61.1022 13.9957L71.8113 23.5225ZM56.3388 19.3502L67.048 28.877L47.7272 50.5957L36.0662 51.8023L35.8413 42.3917L56.3388 19.3502ZM42.9987 10.75C25.1875 10.75 10.7487 25.1888 10.7487 43C10.7487 60.8112 25.1875 75.25 42.9987 75.25C60.8099 75.25 75.2487 60.8112 75.2487 43C75.2487 41.021 76.853 39.4167 78.832 39.4167C80.811 39.4167 82.4154 41.021 82.4154 43C82.4154 64.7692 64.7679 82.4167 42.9987 82.4167C21.2295 82.4167 3.58203 64.7692 3.58203 43C3.58203 21.2308 21.2295 3.58336 42.9987 3.58336C44.3265 3.58336 45.64 3.64914 46.9361 3.77782C48.9054 3.97335 50.3434 5.72832 50.1478 7.69765C49.9523 9.66699 48.1973 11.1049 46.228 10.9094C45.1669 10.8041 44.0897 10.75 42.9987 10.75Z" fill="url(#paint0_linear_1236_10474)"/>
<defs>
<linearGradient id="paint0_linear_1236_10474" x1="15.9859" y1="74.9743" x2="78.2807" y2="1.1025" gradientUnits="userSpaceOnUse">
<stop stop-color="#FFCC00"/>
<stop offset="1" stop-color="#FFF4C8"/>
</linearGradient>
</defs>
</svg>
