<svg width="86" height="86" viewBox="0 0 86 86" fill="none" xmlns="http://www.w3.org/2000/svg">
<path fill-rule="evenodd" clip-rule="evenodd" d="M10.7526 42.9999C10.7526 25.1887 25.1914 10.7499 43.0026 10.7499C44.0936 10.7499 45.1708 10.804 46.2319 10.9093C48.2012 11.1048 49.9562 9.66688 50.1517 7.69755C50.3473 5.72821 48.9093 3.97324 46.94 3.77771C45.6439 3.64903 44.3304 3.58325 43.0026 3.58325C21.2334 3.58325 3.58594 21.2307 3.58594 42.9999C3.58594 64.7691 21.2334 82.4166 43.0026 82.4166C64.7718 82.4166 82.4193 64.7691 82.4193 42.9999C82.4193 41.0209 80.815 39.4166 78.8359 39.4166C76.8569 39.4166 75.2526 41.0209 75.2526 42.9999C75.2526 60.8111 60.8138 75.2499 43.0026 75.2499C25.1914 75.2499 10.7526 60.8111 10.7526 42.9999ZM77.3967 13.577C78.5013 11.935 78.0657 9.7084 76.4237 8.60372C74.7817 7.49904 72.5551 7.93463 71.4504 9.57664L43.2794 51.4503L31.3734 37.7315C30.0763 36.2369 27.8131 36.0767 26.3184 37.3739C24.8238 38.671 24.6637 40.9342 25.9608 42.4288L37.8668 56.1476C40.9593 59.7111 46.5919 59.3655 49.2256 55.4507L77.3967 13.577Z" fill="url(#paint0_linear_1236_10490)"/>
<defs>
<linearGradient id="paint0_linear_1236_10490" x1="66.6526" y1="4.29992" x2="12.9026" y2="83.1332" gradientUnits="userSpaceOnUse">
<stop stop-color="#A5F4B9"/>
<stop offset="1" stop-color="#34C759"/>
</linearGradient>
</defs>
</svg>
