<svg width="20" height="20" viewBox="0 0 20 20" fill="none" xmlns="http://www.w3.org/2000/svg">
<path d="M7.49935 7.50008L7.77877 6.66182C8.36509 4.90285 10.6857 4.52627 11.7981 6.00956C12.4498 6.87844 12.4043 8.08487 11.6891 8.90224L10.9231 9.77768C10.3276 10.4583 9.99935 11.3319 9.99935 12.2362V12.5001M18.3327 10.0001C18.3327 14.6025 14.6017 18.3334 9.99935 18.3334C5.39698 18.3334 1.66602 14.6025 1.66602 10.0001C1.66602 5.39771 5.39698 1.66675 9.99935 1.66675C14.6017 1.66675 18.3327 5.39771 18.3327 10.0001Z" stroke="#959595" stroke-width="1.25" stroke-linecap="round"/>
<path d="M10.416 15.0001C10.416 15.2302 10.2295 15.4167 9.99935 15.4167C9.76923 15.4167 9.58268 15.2302 9.58268 15.0001C9.58268 14.77 9.76923 14.5834 9.99935 14.5834C10.2295 14.5834 10.416 14.77 10.416 15.0001Z" fill="#2D264B" stroke="#959595" stroke-width="0.833335"/>
</svg>
