<svg width="20" height="21" viewBox="0 0 20 21" fill="none" xmlns="http://www.w3.org/2000/svg">
<path fill-rule="evenodd" clip-rule="evenodd" d="M11.5072 2.81596C11.9897 2.61627 12.7073 2.33839 13.4201 2.61889C13.5184 2.65755 13.6158 2.69794 13.7122 2.74003C14.4139 3.04612 14.7247 3.74954 14.9247 4.23173C14.9604 4.31793 14.9931 4.39894 15.0242 4.47633C15.094 4.6494 15.1564 4.80442 15.23 4.9587C15.3327 5.17399 15.4299 5.32546 15.5327 5.42831C15.6356 5.53116 15.7871 5.62835 16.0024 5.73103C16.1567 5.80463 16.3117 5.86706 16.4848 5.9368C16.5621 5.96795 16.6432 6.00063 16.7294 6.03635C17.2116 6.23632 17.9151 6.54712 18.2212 7.24875C18.2634 7.34536 18.3038 7.44288 18.3425 7.54128C18.623 8.25415 18.3452 8.97174 18.1455 9.45423C18.1098 9.54049 18.0755 9.62087 18.0428 9.69766C17.9697 9.86932 17.9041 10.0233 17.847 10.1844C17.7673 10.4093 17.7289 10.5852 17.7289 10.7307C17.7289 10.8762 17.7673 11.0521 17.847 11.277C17.9041 11.4381 17.9696 11.5918 18.0427 11.7635C18.0754 11.8402 18.1098 11.921 18.1455 12.0072C18.3452 12.4897 18.623 13.2073 18.3425 13.9201C18.3039 14.0183 18.2636 14.1155 18.2215 14.2119C17.9154 14.9136 17.2118 15.2245 16.7296 15.4244C16.6435 15.4601 16.5625 15.4927 16.4852 15.5239C16.3121 15.5936 16.1568 15.6562 16.0024 15.7298C15.7871 15.8325 15.6356 15.9297 15.5327 16.0325C15.4299 16.1354 15.3327 16.2869 15.23 16.5022C15.1564 16.6565 15.094 16.8115 15.0243 16.9845C14.9931 17.0619 14.9604 17.1432 14.9247 17.2294C14.7247 17.7117 14.4139 18.4153 13.7122 18.7214C13.6157 18.7635 13.5184 18.8039 13.4201 18.8425C12.7073 19.123 11.9897 18.8452 11.5072 18.6455C11.4209 18.6097 11.3405 18.5755 11.2636 18.5428C11.092 18.4697 10.9381 18.4041 10.777 18.347C10.5521 18.2673 10.3762 18.2289 10.2307 18.2289C10.0852 18.2289 9.90936 18.2673 9.68444 18.347C9.52337 18.4041 9.36974 18.4695 9.19816 18.5426C9.12128 18.5754 9.04061 18.6097 8.95424 18.6455C8.47175 18.8452 7.75416 19.123 7.04129 18.8425C6.94305 18.8039 6.84568 18.7635 6.74922 18.7214C6.04752 18.4153 5.73671 17.7117 5.53673 17.2295C5.50098 17.1433 5.46835 17.0623 5.43717 16.9849C5.36743 16.8117 5.30499 16.6567 5.2314 16.5024C5.12871 16.2871 5.03151 16.1356 4.92866 16.0327C4.82581 15.9299 4.67432 15.8327 4.459 15.73C4.30473 15.6564 4.14979 15.594 3.97672 15.5243C3.89945 15.4932 3.81797 15.4604 3.73192 15.4247C3.24966 15.2247 2.54612 14.9139 2.24 14.2122C2.19792 14.1157 2.15754 14.0184 2.11889 13.9201C1.83839 13.2073 2.11626 12.4897 2.31596 12.0072C2.35169 11.9209 2.38595 11.8404 2.41868 11.7636C2.49178 11.5919 2.55727 11.4381 2.61437 11.277C2.69407 11.0521 2.73249 10.8762 2.73249 10.7307C2.73249 10.5852 2.69407 10.4093 2.61437 10.1844C2.55727 10.0233 2.49183 9.86961 2.41872 9.69795C2.38598 9.62108 2.35171 9.54059 2.31596 9.45422C2.11627 8.97174 1.8384 8.25414 2.11889 7.54128C2.15758 7.44296 2.19799 7.34552 2.24011 7.24899C2.54624 6.54733 3.24974 6.23652 3.73198 6.03655C3.81817 6.00081 3.89917 5.96818 3.97655 5.93701C4.14967 5.86727 4.30472 5.80481 4.45902 5.73122C4.67433 5.62854 4.82582 5.53134 4.92867 5.42849C5.03152 5.32564 5.12871 5.17416 5.2314 4.95885C5.30499 4.80455 5.36742 4.64959 5.43715 4.47649C5.46833 4.39909 5.50099 4.31804 5.53674 4.23183C5.73672 3.74961 6.04754 3.04612 6.7492 2.74002C6.84566 2.69794 6.94303 2.65755 7.04127 2.61889C7.75414 2.3384 8.47173 2.61627 8.95422 2.81596C9.04059 2.85171 9.12107 2.88599 9.19794 2.91872C9.3696 2.99183 9.52328 3.05728 9.68442 3.11437C9.90934 3.19408 10.0852 3.2325 10.2307 3.2325C10.3762 3.2325 10.5521 3.19408 10.777 3.11437C10.9381 3.05728 11.0918 2.99183 11.2635 2.91872C11.3403 2.88599 11.4208 2.85171 11.5072 2.81596Z" fill="#FFCC00"/>
<path d="M13.6667 8.5L10.7804 11.9636C10.187 12.6756 9.89031 13.0316 9.5 13.0316C9.10969 13.0316 8.813 12.6756 8.21963 11.9636L7 10.5" stroke="white" stroke-width="1.25006" stroke-linecap="round"/>
</svg>
